<?xml version="1.0" standalone="no"?>
<!DOCTYPE svg PUBLIC "-//W3C//DTD SVG 20010904//EN"
 "http://www.w3.org/TR/2001/REC-SVG-20010904/DTD/svg10.dtd">
<svg version="1.0" xmlns="http://www.w3.org/2000/svg"
 width="16.000000pt" height="16.000000pt" viewBox="0 0 16.000000 16.000000"
 preserveAspectRatio="xMidYMid meet">
<metadata>
Created by potrace 1.11, written by Peter Selinger 2001-2013
</metadata>
<g transform="translate(0.000000,16.000000) scale(0.003200,-0.003200)"
fill="#000000" stroke="none">
<path d="M2137 4553 c-364 -82 -669 -266 -911 -550 -86 -101 -78 -90 -132
-173 -135 -210 -233 -484 -259 -730 -13 -117 -7 -377 10 -440 2 -8 7 -31 10
-50 39 -236 183 -552 335 -735 285 -341 630 -540 1060 -611 90 -15 375 -22
426 -10 12 2 45 7 75 11 102 12 266 55 346 91 17 8 34 14 38 14 4 0 53 23 109
51 394 198 691 533 834 939 29 85 56 185 67 250 3 19 8 42 10 50 15 57 23 342
11 430 -2 19 -7 58 -11 85 -3 28 -17 93 -30 145 -151 609 -625 1081 -1229
1225 -148 35 -176 38 -177 23 0 -7 -1 -393 -2 -858 -2 -951 3 -884 -79 -954
-111 -96 -284 -50 -344 89 -4 11 -9 396 -10 855 -1 459 -3 845 -3 857 -1 27
-8 26 -144 -4z m-570 -636 c110 -110 123 -126 115 -147 -5 -13 -19 -27 -32
-32 -20 -7 -37 5 -141 109 -66 64 -121 125 -124 135 -9 25 12 58 37 58 15 0
63 -41 145 -123z m2038 110 c12 -10 16 -21 12 -38 -6 -25 -236 -259 -254 -259
-20 0 -51 39 -46 59 6 25 236 251 255 251 8 0 22 -6 33 -13z m-2291 -1076 c20
-17 21 -45 0 -62 -20 -16 -350 -20 -364 -4 -18 22 -15 59 6 70 33 16 337 13
358 -4z m2738 1 c17 -17 17 -50 0 -65 -22 -18 -329 -18 -359 0 -28 17 -30 47
-4 65 26 18 345 18 363 0z m-2371 -876 c4 -4 4 -16 2 -26 -8 -28 -237 -250
-259 -250 -25 0 -44 19 -44 44 0 21 212 243 245 256 19 7 40 -2 56 -24z m1827
-99 c61 -63 112 -121 112 -130 0 -8 -7 -23 -16 -31 -8 -9 -23 -16 -31 -16 -19
0 -242 216 -253 245 -4 11 -5 26 -2 33 7 19 44 31 62 22 8 -5 66 -60 128 -123z
m-976 -244 c11 -15 14 -51 13 -187 -1 -148 -3 -170 -18 -181 -22 -16 -55 -9
-66 14 -4 9 -7 88 -7 177 1 121 5 165 15 178 18 21 44 20 63 -1z"/>
<path d="M156 3133 c-41 -11 -97 -55 -123 -96 -28 -42 -28 -44 -27 -202 2
-362 95 -720 280 -1075 345 -660 978 -1139 1705 -1290 176 -36 279 -45 509
-45 201 0 268 5 435 31 62 9 272 63 350 89 539 180 1016 549 1317 1020 242
377 376 798 395 1237 7 168 -3 211 -61 271 -101 104 -270 84 -342 -38 -27 -47
-31 -70 -39 -225 -3 -63 -7 -126 -9 -140 -3 -14 -7 -47 -11 -74 -3 -27 -8 -52
-10 -55 -1 -3 -6 -22 -9 -41 -10 -62 -45 -187 -80 -282 -186 -512 -574 -935
-1072 -1169 -151 -70 -403 -146 -546 -164 -24 -3 -70 -9 -103 -14 -95 -13
-349 -11 -470 5 -727 93 -1344 559 -1643 1240 -52 118 -123 368 -137 479 -4
28 -8 57 -10 65 -2 8 -7 71 -10 140 -8 168 -11 187 -41 237 -33 57 -97 94
-171 98 -32 2 -67 1 -77 -2z"/>
</g>
</svg>
